<svg width="290" height="960" viewBox="0 0 261 860" fill="#212121" xmlns="http://www.w3.org/2000/svg">
<g clip-path="url(#clip0_1213_29568)">
<rect width="290" height="960" fill="#212121"/>
<path opacity="0.5" d="M211.802 817.124L235.135 908.192L256.546 888.593L242.053 832L321.85 854.336C325.128 855.254 328.651 854.89 331.644 853.322C334.636 851.755 336.854 849.114 337.809 845.979C338.764 842.844 338.378 839.473 336.736 836.607C335.093 833.741 332.329 831.615 329.052 830.697L227.896 802.392C225.732 801.788 223.442 801.739 221.254 802.25C219.066 802.761 217.058 803.814 215.431 805.303C213.805 806.792 212.617 808.665 211.986 810.733C211.356 812.802 211.306 814.993 211.841 817.088L211.802 817.124Z" fill="url(#paint0_linear_1213_29568)"/>
<path opacity="0.5" d="M92.522 881.923L119.354 752.309C119.926 749.537 119.636 746.541 118.514 743.624C117.391 740.707 115.476 737.971 112.959 735.69C110.442 733.409 107.413 731.664 104.176 730.63C100.938 729.596 97.6065 729.31 94.5151 729.799L-39.9992 751.187L-6.88858 781.166L76.7576 767.867L55.6022 870.119C54.8696 874.278 56.0547 878.831 58.9047 882.809C61.7547 886.786 66.044 889.873 70.8576 891.409C75.6711 892.946 80.6279 892.812 84.6705 891.035C88.7131 889.257 91.5214 885.978 92.4965 881.897L92.522 881.923Z" fill="url(#paint1_linear_1213_29568)"/>
<path opacity="0.5" d="M276.6 692.751L274.883 665.093L233.07 643.458L285.28 595.33C287.337 593.324 288.729 590.449 289.162 587.317C289.595 584.185 289.034 581.041 287.598 578.554C286.162 576.067 283.965 574.432 281.472 573.997C278.979 573.561 276.388 574.36 274.248 576.222L208.069 637.226C206.652 638.531 205.516 640.254 204.773 642.223C204.031 644.192 203.708 646.338 203.838 648.443C203.969 650.549 204.547 652.541 205.515 654.219C206.483 655.897 207.806 657.202 209.353 658.004L219.115 663.047C219.269 663.115 219.424 663.168 219.571 663.242L276.6 692.751Z" fill="url(#paint2_linear_1213_29568)"/>
</g>
<defs>
<linearGradient id="paint0_linear_1213_29568" x1="255.569" y1="867.952" x2="220.259" y2="801.988" gradientUnits="userSpaceOnUse">
<stop stop-color="#2F2F2F"/>
<stop offset="0.14" stop-color="#DC5D5A" stop-opacity="0.771127"/>
<stop offset="0.739583" stop-color="#C90500"/>
<stop offset="0.95" stop-color="#AE0400"/>
</linearGradient>
<linearGradient id="paint1_linear_1213_29568" x1="6.63875" y1="835.119" x2="105.704" y2="728.919" gradientUnits="userSpaceOnUse">
<stop stop-color="#2F2F2F"/>
<stop offset="0.546875" stop-color="#E10600"/>
<stop offset="0.760417" stop-color="#C90500"/>
<stop offset="0.95" stop-color="#AE0400"/>
</linearGradient>
<linearGradient id="paint2_linear_1213_29568" x1="296.659" y1="627.103" x2="202.789" y2="642.555" gradientUnits="userSpaceOnUse">
<stop stop-color="#2F2F2F"/>
<stop offset="0.625" stop-color="#C90500"/>
<stop offset="0.828125" stop-color="#AE0400"/>
<stop offset="1" stop-color="#8E0300"/>
</linearGradient>
<clipPath id="clip0_1213_29568">
<rect width="290" height="960" fill="white"/>
</clipPath>
</defs>
</svg>