<?xml version="1.0" standalone="no"?>
<!DOCTYPE svg PUBLIC "-//W3C//DTD SVG 20010904//EN"
 "http://www.w3.org/TR/2001/REC-SVG-20010904/DTD/svg10.dtd">
<svg version="1.0" xmlns="http://www.w3.org/2000/svg"
 width="197.000000pt" height="63.000000pt" viewBox="0 0 197.000000 63.000000"
 preserveAspectRatio="xMidYMid meet">

<g transform="translate(0.000000,63.000000) scale(0.100000,-0.100000)"
fill="#000000" stroke="none">
<path d="M74 397 c-3 -8 -4 -47 -2 -88 l3 -74 88 -3 87 -3 0 91 0 90 -85 0
c-63 0 -87 -4 -91 -13z"/>
<path d="M367 393 c-4 -3 -7 -39 -7 -80 l0 -73 55 0 c46 0 60 4 80 25 39 38
27 102 -22 124 -26 12 -96 15 -106 4z m103 -47 c19 -24 8 -60 -21 -70 -42 -15
-59 -2 -59 44 0 39 1 40 34 40 18 0 39 -7 46 -14z"/>
<path d="M595 330 c-38 -76 -42 -90 -21 -90 7 0 24 20 37 45 13 25 27 45 30
45 3 0 17 -20 30 -45 22 -41 49 -60 49 -35 0 19 -70 150 -80 150 -5 0 -26 -31
-45 -70z"/>
<path d="M787 393 c-4 -3 -7 -39 -7 -80 0 -58 3 -73 15 -73 12 0 15 16 15 80
0 73 -6 91 -23 73z"/>
<path d="M896 393 c-3 -3 -6 -40 -6 -80 l0 -74 48 3 c53 3 64 21 15 26 l-33 3
0 59 c0 55 -9 78 -24 63z"/>
<path d="M1026 391 c-4 -5 2 -28 14 -50 11 -22 20 -54 20 -71 0 -20 5 -30 15
-30 11 0 15 11 15 36 0 20 10 52 21 71 27 44 11 70 -17 28 l-18 -27 -22 27
c-13 17 -24 23 -28 16z"/>
<path d="M1232 387 c-11 -14 -72 -134 -72 -142 0 -3 7 -5 15 -5 8 0 26 23 41
51 l26 52 29 -52 c28 -49 39 -58 52 -45 7 7 -57 139 -72 148 -5 3 -13 0 -19
-7z"/>
<path d="M1374 386 c-3 -7 -4 -42 -2 -77 2 -49 7 -64 18 -64 9 0 16 11 18 28
3 23 8 27 36 27 17 0 37 5 44 12 19 19 15 66 -7 78 -29 15 -101 13 -107 -4z
m96 -41 c0 -10 -10 -15 -30 -15 -20 0 -30 5 -30 15 0 10 10 15 30 15 20 0 30
-5 30 -15z"/>
<path d="M1545 377 c-4 -13 -5 -48 -3 -78 2 -40 7 -54 18 -54 9 0 16 11 18 28
3 23 8 27 37 27 23 0 39 7 49 21 29 41 -5 79 -71 79 -36 0 -43 -3 -48 -23z
m95 -32 c0 -10 -10 -15 -30 -15 -20 0 -30 5 -30 15 0 10 10 15 30 15 20 0 30
-5 30 -15z"/>
<path d="M1742 384 c-36 -25 -28 -52 23 -74 25 -11 45 -24 45 -30 0 -14 -43
-13 -58 2 -9 9 -15 9 -24 -1 -11 -10 -9 -15 6 -27 26 -19 81 -18 101 2 28 28
15 57 -32 74 -24 8 -43 20 -43 27 0 18 35 16 50 -2 13 -16 30 -11 30 9 0 13
-41 36 -63 36 -7 0 -23 -7 -35 -16z"/>
</g>
</svg>
