<svg width="25" height="20" viewBox="0 0 493 514" fill="none" xmlns="http://www.w3.org/2000/svg">
<g clip-path="url(#clip0_5067_31706)">
<path d="M386 74.97C360.1 48.1 317.9 48.1 291.1 74.97L99.9699 266.1C56.3199 310.6 56.3199 381.4 99.9699 425C143.6 468.7 214.4 468.7 258 425L410 273C419.4 263.7 434.6 263.7 443.1 273C453.3 282.4 453.3 297.6 443.1 306.1L291.1 458.1C229.6 521.4 128.4 521.4 66.0299 458.1C3.63588 396.6 3.63588 295.4 66.0299 233L258 41.03C302.7 -3.689 375.2 -3.689 419.1 41.03C464.7 85.75 464.7 158.3 419.1 202.1L236.2 386.7C204.6 418.3 152.6 415.4 124.7 380.6C100.88 350.8 103.26 307.8 130.2 280.8L282 129C291.4 119.7 306.6 119.7 315.1 129C325.3 138.4 325.3 153.6 315.1 162.1L164.2 314.7C154.5 324.4 153.6 339.9 162.2 350.6C172.2 363.1 190.9 364.2 202.2 352.8L386 169C412 143.1 412 100.94 386 74.97Z" fill="#E10600"/>
<rect x="-17.752" y="-11" width="742" height="48.3897" transform="rotate(45.0537 -17.752 -11)" fill="white"/>
</g>
<line x1="31.8198" y1="23" x2="470" y2="461.18" stroke="#E10600" stroke-width="45" stroke-linecap="round"/>
<defs>
<clipPath id="clip0_5067_31706">
<rect width="448" height="512" fill="white" transform="translate(11 2)"/>
</clipPath>
</defs>
</svg>
