<svg width="200" height="144" viewBox="0 0 200 144" fill="none" xmlns="http://www.w3.org/2000/svg">
<g clip-path="url(#clip0_1385_17425)">
<path d="M15.9992 39.4884L0 23.4892L4.78689 18.7023L15.9518 29.8672L41.0982 4.22656L45.9325 8.96606L15.9992 39.4884Z" fill="#E10600"/>
<path d="M173.943 28.7019C170.517 26.9482 168.242 28.0451 166.935 29.2774C166.752 29.4466 166.583 29.6294 166.421 29.819C167.856 22.3916 166.793 16.7516 163.259 13.0141C160.185 9.76419 155.154 7.98349 148.695 7.85485C143.847 7.76006 139.852 8.63348 139.812 8.64702C139.69 8.6741 139.588 8.75535 139.534 8.86368C139.141 9.70325 129.838 29.5008 130.468 39.8668C131.098 50.2463 131.274 53.53 131.274 53.53C131.274 53.6452 131.335 53.7535 131.43 53.8212C131.49 53.8686 135.269 56.7191 142.073 56.9154L140.963 65.785C140.949 65.9069 140.99 66.0288 141.071 66.1168C141.179 66.2319 142.838 67.8366 148.485 67.8298C152.466 67.8298 158.424 67.0241 167.219 64.3361C167.382 64.2887 167.497 64.1398 167.504 63.9705L168.459 43.9156C171.207 44.1323 174.275 42.1349 175.906 38.7902C177.897 34.7075 177.037 30.2727 173.943 28.6883V28.7019Z" fill="white"/>
<path d="M169.172 4.40235C165.698 4.40235 162.516 5.63462 160.031 7.68614C169.47 10.3132 176.43 19.2234 176.437 29.8196C176.437 30.2868 176.416 30.7472 176.396 31.2076C180.682 28.716 183.566 24.0848 183.566 18.7698C183.566 10.8278 177.121 4.39558 169.178 4.40235H169.172Z" fill="#2B2E42"/>
<path d="M166.648 38.3982L175.436 37.9513L180.386 28.2354C182.83 23.4349 182.424 17.6663 179.309 13.2721C175.842 8.37689 171.638 2.81136 170.446 2.81136C169.092 2.81136 153.228 0.536404 143.329 0.0218303C137.757 -0.26931 133.011 4.00978 132.727 9.58207L134.243 21.2954L139.917 8.5123C139.917 8.5123 148.8 18.0929 163.709 17.0163L166.655 38.405L166.648 38.3982Z" fill="#2B2E42"/>
<path d="M149.375 33.0086C147.656 33.0086 146.037 32.3383 144.819 31.1264C143.6 29.9076 142.93 28.2894 142.93 26.5697C142.93 23.0151 145.814 20.124 149.369 20.1172C152.923 20.1172 155.814 23.0083 155.814 26.5561C155.814 28.2759 155.144 29.8941 153.932 31.1128C152.713 32.3315 151.095 33.0018 149.375 33.0018V33.0086ZM149.375 21.4713C146.566 21.4713 144.284 23.7598 144.291 26.5697C144.291 27.9306 144.819 29.2103 145.787 30.1717C146.748 31.1331 148.028 31.6612 149.382 31.6612C150.743 31.6612 152.023 31.1264 152.984 30.1649C153.946 29.2035 154.474 27.9238 154.474 26.5629C154.474 23.7531 152.185 21.4713 149.382 21.4713H149.375Z" fill="#E10600"/>
<path d="M139.526 41.8462C139.187 41.8462 138.896 41.5889 138.856 41.2436C138.815 40.8713 139.079 40.5395 139.452 40.4921L145.308 39.8218C145.681 39.7744 146.012 40.0452 146.06 40.4176C146.1 40.79 145.836 41.1218 145.464 41.1692L139.607 41.8395C139.607 41.8395 139.553 41.8395 139.526 41.8395V41.8462Z" fill="#2B2E42"/>
<path d="M166.906 43.1055C169.783 44.5138 173.649 42.5029 175.545 38.6233C177.441 34.7437 176.642 30.4646 173.764 29.0563C170.887 27.6548 167.021 29.6589 165.125 33.5385L166.906 43.1055Z" fill="white"/>
<path d="M168.888 44.2346C168.089 44.2346 167.317 44.0653 166.606 43.7133C166.267 43.5508 166.132 43.1445 166.295 42.806C166.457 42.4675 166.863 42.332 167.202 42.4945C168.393 43.0768 169.842 42.9888 171.285 42.244C172.788 41.4654 174.088 40.0706 174.941 38.3238C176.667 34.7895 176.004 30.9031 173.472 29.6641C172.28 29.0818 170.831 29.1698 169.389 29.9146C167.886 30.6932 166.586 32.088 165.733 33.8348C165.57 34.1733 165.164 34.3088 164.825 34.1463C164.487 33.9838 164.351 33.5775 164.514 33.239C165.496 31.2349 166.999 29.6234 168.759 28.7162C170.587 27.7683 172.469 27.6735 174.054 28.4521C177.263 30.0161 178.204 34.715 176.146 38.9264C175.164 40.9305 173.661 42.5419 171.901 43.4492C170.892 43.9706 169.869 44.2346 168.881 44.2346H168.888Z" fill="#2B2E42"/>
<path d="M139.115 24.8971C138.742 24.8971 138.438 24.5924 138.438 24.22C138.438 23.8477 138.742 23.543 139.115 23.543H143.082C143.455 23.543 143.759 23.8477 143.759 24.22C143.759 24.5924 143.455 24.8971 143.082 24.8971H139.115Z" fill="#E10600"/>
<path d="M148.078 25.5893C148.078 26.7403 148.579 27.6747 149.189 27.6747C149.805 27.6747 150.299 26.7403 150.299 25.5893C150.299 24.4383 149.798 23.5039 149.189 23.5039C148.579 23.5039 148.078 24.4383 148.078 25.5893Z" fill="#2B2E42"/>
<path d="M135.305 23.9955C135.305 25.1466 135.806 26.0809 136.415 26.0809C137.031 26.0809 137.525 25.1466 137.525 23.9955C137.525 22.8445 137.024 21.9102 136.415 21.9102C135.799 21.9102 135.305 22.8445 135.305 23.9955Z" fill="#2B2E42"/>
<path d="M166.812 31.5337C166.738 31.5337 166.656 31.5202 166.575 31.4931L154.902 27.1937C154.55 27.0651 154.374 26.6724 154.503 26.3271C154.632 25.975 155.024 25.7922 155.37 25.9276L167.042 30.227C167.394 30.3556 167.57 30.7483 167.442 31.0936C167.34 31.3645 167.083 31.5337 166.805 31.5337H166.812Z" fill="#E10600"/>
<path d="M142.7 57.273C135.503 57.273 131.515 54.2465 131.258 54.0434C131.102 53.9215 131.007 53.7455 131 53.5491C131 53.5491 130.817 50.2654 130.195 39.8859C129.565 29.4454 138.895 9.58694 139.288 8.74737C139.45 8.40883 139.85 8.26665 140.188 8.42237C140.527 8.58487 140.669 8.98434 140.513 9.32288C140.418 9.526 130.933 29.7095 131.542 39.7978C132.063 48.3492 132.273 52.0867 132.334 53.1429C133.891 54.1721 142.91 59.3246 157.467 51.9987C157.799 51.8294 158.205 51.9648 158.374 52.2966C158.544 52.6283 158.408 53.0346 158.076 53.2038C151.969 56.2777 146.817 57.2663 142.7 57.2663V57.273Z" fill="#2B2E42"/>
<path d="M167.108 64.6397C167.108 64.6397 167.087 64.6397 167.074 64.6397C166.702 64.6194 166.41 64.3011 166.431 63.9287L167.392 43.6911C167.412 43.3187 167.737 43.0276 168.103 43.0479C168.475 43.0682 168.767 43.3864 168.746 43.7588L167.785 63.9964C167.765 64.3621 167.467 64.6397 167.108 64.6397Z" fill="#2B2E42"/>
<path d="M141.362 66.5233C141.362 66.5233 141.308 66.5233 141.274 66.5233C140.902 66.4759 140.638 66.1374 140.685 65.765L141.829 56.6245C141.877 56.2521 142.215 55.9948 142.588 56.0355C142.96 56.0829 143.224 56.4214 143.177 56.7938L142.033 65.9342C141.992 66.2728 141.701 66.5301 141.362 66.5301V66.5233Z" fill="#2B2E42"/>
<path d="M133.969 31.1542C132.249 31.1542 130.631 30.4839 129.412 29.2719C128.194 28.0532 127.523 26.435 127.523 24.7152C127.523 22.9955 128.194 21.3773 129.406 20.1586C130.624 18.9398 132.243 18.2695 133.962 18.2695C137.009 18.2695 139.663 20.4294 140.279 23.4153C140.354 23.7809 140.117 24.1397 139.751 24.2142C139.386 24.2887 139.027 24.0517 138.952 23.6861C138.472 21.3299 136.373 19.6237 133.962 19.6237C132.601 19.6237 131.322 20.1586 130.36 21.12C129.399 22.0814 128.871 23.3611 128.871 24.722C128.871 26.0829 129.399 27.3626 130.367 28.324C131.329 29.2855 132.608 29.8136 133.962 29.8136C134.653 29.8136 135.317 29.6782 135.946 29.4141C136.292 29.2719 136.691 29.4277 136.833 29.773C136.982 30.1183 136.82 30.511 136.474 30.6599C135.682 30.9985 134.836 31.1677 133.969 31.1677V31.1542Z" fill="#E10600"/>
<path d="M139.393 37.8514C139.264 37.8514 139.136 37.8175 139.02 37.7363C138.059 37.0999 134.904 34.8926 134.653 33.4234C134.579 32.99 134.721 32.6921 134.856 32.5093C135.405 31.7781 138.682 24.3642 140.625 19.8616C140.774 19.5163 141.174 19.3606 141.512 19.5096C141.857 19.6585 142.013 20.058 141.864 20.3965C141.356 21.5814 136.942 31.7916 135.987 33.2406C136.136 33.8025 137.856 35.3395 139.765 36.6056C140.077 36.8155 140.158 37.2353 139.955 37.5467C139.826 37.7431 139.609 37.8514 139.393 37.8514Z" fill="#2B2E42"/>
<path d="M166.343 61.5742H141.921C139.842 61.5742 138.156 63.2596 138.156 65.3387V77.7562C138.156 79.8353 139.842 81.5207 141.921 81.5207H166.343C168.422 81.5207 170.107 79.8353 170.107 77.7562V65.3387C170.107 63.2596 168.422 61.5742 166.343 61.5742Z" fill="#2B2E42"/>
<path d="M101.758 140.945H200.001V99.2579C200.001 86.8337 189.933 76.7656 177.509 76.7656H133.946C124.656 76.7656 116.322 82.4801 112.97 91.1398L101.758 140.938V140.945Z" fill="#2B2E42"/>
<path d="M57.743 51.1797L44.6484 62.331L45.7385 63.6107C47.7359 65.9534 51.2499 66.2377 53.5925 64.2404L61.3044 57.6728L57.743 51.1797Z" fill="white"/>
<path d="M49.9883 66.2455C48.2211 66.2455 46.4608 65.5007 45.2217 64.0517L44.1316 62.7721C43.8879 62.4877 43.9217 62.0612 44.2061 61.8174L57.3007 50.6661C57.4564 50.5306 57.6595 50.4765 57.8626 50.5171C58.0658 50.551 58.235 50.6796 58.3366 50.8556L61.898 57.3487C62.0537 57.6331 61.986 57.9852 61.7422 58.1883L54.0304 64.7559C52.8591 65.758 51.4169 66.2455 49.9815 66.2455H49.9883ZM45.6009 62.4065L46.2509 63.1716C48.0045 65.2299 51.0987 65.4736 53.1502 63.7268L60.4423 57.518L57.5444 52.2369L45.5941 62.4065H45.6009Z" fill="#080717"/>
<path d="M56.1429 50.707L39.4531 54.871L39.8594 56.5028C40.6041 59.4886 43.6307 61.3032 46.6165 60.5584L56.4476 58.1074L56.1429 50.707Z" fill="white"/>
<path d="M45.2725 61.404C42.4694 61.404 39.9169 59.5014 39.206 56.6645L38.7997 55.0327C38.7591 54.8567 38.7862 54.6739 38.8742 54.5181C38.969 54.3624 39.1179 54.2541 39.294 54.2067L55.9838 50.0427C56.1801 49.9953 56.39 50.0359 56.5525 50.1578C56.715 50.2797 56.8166 50.4693 56.8233 50.6724L57.128 58.0728C57.1416 58.391 56.9249 58.6821 56.6135 58.7566L46.7824 61.2076C46.2746 61.3363 45.7668 61.3972 45.2725 61.3972V61.404ZM40.2757 55.3645L40.5195 56.3395C41.1762 58.9597 43.8371 60.5576 46.4574 59.9076L55.7536 57.5853L55.5031 51.5661L40.2757 55.3645Z" fill="#080717"/>
<path d="M99.7321 140.947L56.1829 78.907C52.6215 74.7295 50.8679 69.2993 51.308 63.8286L52.9668 43.1441L38.6738 41.9998C35.3494 41.7358 32.8646 38.8176 33.1286 35.4932L33.2776 33.6719L62.1547 35.9875L78.709 48.7976L82.7782 78.5481L144.31 140.954H99.7321V140.947Z" fill="white"/>
<path d="M99.7322 141.623C99.5223 141.623 99.3124 141.521 99.177 141.332L55.6278 79.2919C51.9649 74.9925 50.1774 69.4608 50.631 63.7734L52.2357 43.766L38.613 42.6759C34.9162 42.378 32.1538 39.1348 32.4517 35.438L32.6006 33.6235C32.6142 33.4474 32.7022 33.2782 32.8376 33.1631C32.973 33.048 33.1491 32.9938 33.3319 33.0006L62.209 35.3161C62.3376 35.3297 62.4662 35.3771 62.5678 35.4583L79.1222 48.2685C79.2644 48.3768 79.3524 48.5393 79.3795 48.7154L83.4216 78.2424L144.798 140.486C145.062 140.75 145.055 141.183 144.798 141.44C144.534 141.704 144.101 141.698 143.843 141.44L82.2977 79.0143C82.1961 78.9127 82.1284 78.7773 82.1081 78.6284L78.0727 49.1555L61.8975 36.6364L33.8939 34.3886L33.7991 35.5328C33.5621 38.4848 35.7693 41.078 38.7214 41.315L53.0143 42.4592C53.3867 42.4863 53.6643 42.8181 53.6372 43.1905L51.9784 63.875C51.5519 69.2103 53.2242 74.3899 56.6908 78.4591L100.281 140.553C100.497 140.858 100.423 141.285 100.118 141.494C100.003 141.576 99.8609 141.616 99.7322 141.616V141.623Z" fill="#2B2E42"/>
<path d="M54.5779 48.101L37.4345 46.7266L37.299 48.4057C37.0553 51.4728 39.3438 54.1608 42.4109 54.4045L52.5061 55.217L54.5779 48.1078V48.101Z" fill="white"/>
<path d="M52.5072 55.8933C52.5072 55.8933 52.4733 55.8933 52.453 55.8933L42.3579 55.0808C38.9252 54.8032 36.3523 51.7835 36.6299 48.3507L36.7653 46.6716C36.7924 46.2992 37.1174 46.0216 37.4965 46.0487L54.64 47.4232C54.8431 47.4367 55.0259 47.545 55.141 47.7143C55.2561 47.8836 55.29 48.0935 55.2358 48.2898L53.164 55.399C53.0827 55.6902 52.8119 55.8865 52.514 55.8865L52.5072 55.8933ZM38.0517 47.457L37.9705 48.4591C37.7538 51.147 39.7715 53.5168 42.4595 53.7335L52.0062 54.4985L53.6921 48.7164L38.0517 47.4638V47.457Z" fill="#080717"/>
<path d="M92.5659 45.7241L31.8597 41.3164L21.7578 45.0335L30.6951 50.1319L91.4013 54.5396L91.5503 54.3297C93.331 51.8245 93.7169 48.5814 92.5727 45.7241H92.5659Z" fill="#2B2E42"/>
<path d="M88.4712 54.7507C88.4712 54.7507 88.4238 54.7507 88.4035 54.7507C88.0311 54.7101 87.7603 54.3783 87.8009 54.006L88.6608 45.6983C88.7014 45.3259 89.0264 45.0686 89.4056 45.0957C89.778 45.1363 90.0488 45.4681 90.0082 45.8405L89.1483 54.1481C89.1144 54.4934 88.8165 54.7575 88.478 54.7575L88.4712 54.7507Z" fill="white"/>
<path d="M26.1859 43.4023L21.7578 45.0341L25.8676 47.3768L26.1859 43.4023Z" fill="#080717"/>
<path d="M63.0391 58.4773L47.1347 39.7969L47.0467 39.8849C44.1556 42.7286 43.6681 47.2176 45.8821 50.6165L51.6372 60.6913L63.0391 58.4773Z" fill="white"/>
<path d="M51.6402 61.3682C51.4032 61.3682 51.1798 61.2464 51.0512 61.0297L45.2961 50.9549C42.9331 47.3326 43.468 42.4644 46.5757 39.4108L46.6637 39.3228C46.7992 39.1942 46.982 39.1129 47.1715 39.1265C47.3611 39.1332 47.5372 39.2213 47.659 39.3634L63.5634 58.0438C63.8072 58.3282 63.7733 58.7548 63.489 58.9985C63.2046 59.2422 62.778 59.2084 62.5343 58.924L47.1174 40.8191C44.8356 43.4394 44.5377 47.3123 46.4538 50.2575L52.236 60.3662C52.4188 60.6912 52.3105 61.1042 51.9855 61.287C51.8772 61.3479 51.7621 61.375 51.647 61.375L51.6402 61.3682Z" fill="#080717"/>
<path d="M101.73 97.3477L80.1719 112.331L99.7325 140.944H144.311L101.73 97.3477Z" fill="#2B2E42"/>
<path d="M106.49 130.14C106.49 130.14 106.429 130.14 106.395 130.14C106.023 130.085 105.766 129.74 105.82 129.374L109.198 105.731C109.252 105.359 109.591 105.101 109.963 105.156C110.336 105.21 110.593 105.555 110.539 105.921L107.16 129.564C107.113 129.903 106.822 130.146 106.49 130.146V130.14Z" fill="white"/>
<path d="M177.489 83.6797H113.242V141.772H177.489V83.6797Z" fill="white"/>
<path d="M177.488 142.451C177.116 142.451 176.811 142.146 176.811 141.774V84.358H113.924V141.774C113.924 142.146 113.62 142.451 113.247 142.451C112.875 142.451 112.57 142.146 112.57 141.774V83.681C112.57 83.3086 112.875 83.0039 113.247 83.0039H177.488C177.86 83.0039 178.165 83.3086 178.165 83.681V141.774C178.165 142.146 177.86 142.451 177.488 142.451Z" fill="#2B2E42"/>
<path d="M169.079 123.307L173.575 140.308C173.575 140.308 189.805 136.686 192.554 125.717C195.302 114.749 196.156 97.3548 187.184 93.8611C178.206 90.3742 162.83 93.2179 162.83 93.2179C162.83 93.2179 160.657 96.6438 165.254 99.2844C169.845 101.925 171.558 103.841 171.558 103.841L158.585 104.065C158.585 104.065 157.38 106.245 158.477 109.745C159.573 113.246 159.668 118.974 169.086 123.32L169.079 123.307Z" fill="white"/>
<path d="M178.348 138.981C178.071 138.981 177.807 138.805 177.712 138.528C177.59 138.175 177.773 137.79 178.125 137.661C183.65 135.704 190.522 132.021 191.89 125.568C193.562 117.714 196.419 98.9527 186.893 94.4637C178.944 90.7195 165.64 93.2992 163.324 93.7867C163.04 94.5788 162.403 96.7048 163.141 98.1944C163.507 98.9324 164.164 99.4131 165.145 99.6569C166.919 100.104 169.465 100.171 171.923 100.246C176.188 100.368 180.217 100.483 181.747 102.345C181.984 102.636 181.943 103.063 181.652 103.3C181.361 103.536 180.935 103.496 180.698 103.205C179.56 101.823 175.484 101.702 171.882 101.6C169.35 101.526 166.73 101.451 164.814 100.97C163.439 100.625 162.464 99.8938 161.922 98.7902C160.731 96.3731 162.139 93.0757 162.2 92.9336C162.288 92.7372 162.457 92.595 162.667 92.5476C163.304 92.3987 178.348 88.9456 187.462 93.2382C191.768 95.2627 198.234 102.196 193.21 125.846C191.707 132.915 184.422 136.869 178.572 138.934C178.497 138.961 178.423 138.974 178.348 138.974V138.981Z" fill="#2B2E42"/>
<path d="M159.276 109.374C159.154 109.374 159.032 109.34 158.924 109.272C155.782 107.343 156.838 103.477 157.84 101.703C157.969 101.479 158.206 101.337 158.463 101.357L187.875 102.772C188.248 102.793 188.539 103.111 188.518 103.483C188.498 103.856 188.173 104.14 187.808 104.127L158.836 102.732C158.355 103.761 157.285 106.679 159.628 108.121C159.946 108.318 160.048 108.737 159.851 109.056C159.723 109.266 159.499 109.381 159.276 109.381V109.374Z" fill="#2B2E42"/>
<path d="M185.738 120.834C185.704 120.834 185.663 120.834 185.629 120.827C184.749 120.685 163.99 117.266 160.74 116.203C157.071 115.005 157.111 109.175 157.118 108.931C157.118 108.742 157.199 108.566 157.341 108.437C157.484 108.308 157.673 108.254 157.856 108.268L187.776 111.172C188.148 111.206 188.419 111.538 188.385 111.91C188.351 112.283 188.02 112.554 187.647 112.52L158.506 109.689C158.614 111.132 159.081 114.233 161.167 114.916C164.315 115.946 185.636 119.453 185.853 119.493C186.225 119.554 186.469 119.9 186.408 120.272C186.354 120.604 186.07 120.841 185.738 120.841V120.834Z" fill="#2B2E42"/>
<path d="M182.918 127.702C182.918 127.702 182.871 127.702 182.851 127.702C181.964 127.608 161.042 125.312 160.548 115.799C160.528 115.427 160.819 115.109 161.191 115.089C161.557 115.055 161.882 115.353 161.902 115.732C162.125 120.018 167.759 122.672 172.451 124.148C177.691 125.793 182.939 126.355 182.993 126.362C183.365 126.402 183.636 126.734 183.595 127.107C183.562 127.452 183.264 127.716 182.925 127.716L182.918 127.702Z" fill="#2B2E42"/>
<path d="M177.411 143.649C177.039 143.649 176.734 143.344 176.734 142.972V126.763C176.734 126.391 177.039 126.086 177.411 126.086C177.784 126.086 178.089 126.391 178.089 126.763V142.972C178.089 143.344 177.784 143.649 177.411 143.649Z" fill="#080717"/>
</g>
<defs>
<clipPath id="clip0_1385_17425">
<rect width="200" height="143.647" fill="white"/>
</clipPath>
</defs>
</svg>
